<svg width="161" height="56" viewBox="0 0 161 56" fill="none" xmlns="http://www.w3.org/2000/svg">
<path d="M85.0278 14.5534C85.0278 16.5689 83.8378 17.9119 82.0289 17.9119C80.22 17.9119 78.0304 16.5689 78.0304 14.5534C78.0304 12.538 80.1703 10.0754 82.0289 10.0754C83.889 10.1314 85.0278 12.5944 85.0278 14.5534ZM71.0329 21.2704V22.3899C71.0329 22.3899 69.3508 20.1509 66.0348 20.1509C60.559 20.1509 57.0381 24.9085 57.0381 31.3458C57.0381 37.7277 60.5088 42.5407 66.0348 42.5407C69.401 42.5407 71.0329 40.3018 71.0329 40.3018V41.4212C71.0329 41.8692 71.631 41.4212 72.0326 41.4212H76.0311V20.1509H72.0326C71.631 20.1526 71.0329 20.8783 71.0329 21.2704ZM71.0329 34.7043C70.2801 35.9363 68.8428 36.9433 67.0344 36.9433C63.8192 36.9433 62.0362 35.153 62.0362 31.3458C62.0362 27.5391 63.8192 24.6288 67.0344 24.6288C68.7931 24.6288 70.3303 25.6923 71.0329 26.8678V34.7043ZM79.03 20.1509H84.0282V41.4212H79.03V20.1509ZM151.004 20.1509C147.688 20.1509 146.005 22.3899 146.005 22.3899V10.0754H142.007V41.4212H146.005C146.005 41.8133 146.408 41.4212 146.005 41.4212V40.3018C146.005 40.3018 147.689 42.5407 151.004 42.5407C156.48 42.5407 161 37.7277 161 31.3458C161 24.9639 156.429 20.1509 151.004 20.1509ZM150.004 36.9433C148.144 36.9433 146.759 35.9368 146.005 34.7043V26.8678C146.759 25.7483 148.296 24.6288 150.004 24.6288C153.219 24.6288 156.002 27.5391 156.002 31.3458C156.002 35.1525 153.22 36.9433 150.004 36.9433ZM139.008 29.1068V41.4212H134.01V30.2263C134.01 26.7563 133.722 24.6288 131.011 24.6288C129.554 24.6288 127.969 25.6359 127.012 26.8678V41.4212H122.014V20.1509H126.013C126.415 20.1509 126.013 20.8783 126.013 21.2704V22.3899C127.42 20.7659 129.152 20.1509 131.011 20.1509C133.121 20.1509 135.602 21.0466 137.009 22.3899C138.716 23.9574 139.008 25.5798 139.008 29.1068ZM110.019 20.1509C106.704 20.1509 105.02 22.3899 105.02 22.3899V10.0754H100.022V41.4212H104.021C104.423 41.4212 105.02 41.8133 105.02 41.4212V40.3018C105.02 40.3018 106.704 42.5407 110.019 42.5407C115.495 42.5407 120.015 37.7277 120.015 31.3458C120.065 24.9633 115.495 20.1509 110.019 20.1509ZM109.019 36.9433C107.16 36.9433 105.774 35.9368 105.02 34.7043V26.8678C105.774 25.7483 107.312 24.6288 109.019 24.6288C112.235 24.6288 115.017 27.5391 115.017 31.3458C115.017 35.1525 112.235 36.9433 109.019 36.9433ZM96.0238 20.1509C97.4803 20.1509 98.023 20.1509 98.023 20.1509V25.7483C98.023 25.7483 94.5368 23.6763 92.0252 26.8678V41.4212H87.0271V20.1509H91.0256C91.4276 20.1509 92.0252 20.8783 92.0252 21.2704V22.3899C92.9307 21.2138 94.5171 20.1509 96.0238 20.1509ZM46.0421 40.3018C45.7911 39.6301 45.2934 38.679 45.0424 38.0628C44.6399 37.0556 44.3936 35.5996 44.0428 34.7043C40.5756 26.3069 36.9662 18.4717 33.0468 10.0754V8.95594C32.6346 8.08493 32.4383 7.59998 32.0472 6.71696C31.5443 5.70867 30.852 4.36677 30.0479 3.35848C28.4403 1.11933 25.5118 0 23.0505 0C20.538 0 18.71 1.23173 17.0527 3.35848C16.2988 4.36565 15.5553 5.70867 15.0534 6.71696C14.6613 7.59942 14.465 8.08436 14.0538 8.95594C10.1851 17.3522 6.52447 26.3075 3.05781 34.7043C2.70648 35.6013 1.46057 37.0562 1.05854 38.0628C0.807591 38.679 1.3095 38.4547 1.05854 39.1823C0.405062 41.2531 -0.193047 43.8832 0.0589092 45.8992C0.611507 50.0979 3.58919 53.2865 7.05635 54.8552C8.36281 55.4714 9.64855 55.9747 11.0549 55.9747C11.4569 55.9747 11.652 56.0311 12.0545 55.9747C13.7128 55.751 15.3944 54.7993 17.0527 53.7357C19.1125 52.4478 20.8401 50.8253 23.0505 48.1382C25.2609 50.8253 28.0383 52.4478 30.0479 53.7357C31.7067 54.7993 33.3883 55.751 35.0461 55.9747C35.4481 56.0317 35.6437 55.9747 36.0457 55.9747C37.4526 55.9747 38.7885 55.4714 40.0443 54.8552C43.5616 53.2865 45.489 50.042 46.0421 45.8992C46.4411 43.9402 46.6951 42.3737 46.0421 40.3018ZM23.0505 42.5407C20.3372 38.7341 18.6546 35.4874 18.0523 32.4653C17.8014 31.1774 17.9012 30.1145 18.0523 29.1068C18.1522 28.2109 18.6499 27.5395 19.052 26.8678C20.0066 25.3574 21.1914 23.5094 23.0505 23.5094C24.9101 23.5094 27.1442 25.3009 28.0487 26.8678C28.4507 27.5395 28.9469 28.2115 29.0483 29.1068C29.1984 30.1151 28.2996 31.2333 28.0487 32.4653C27.4439 35.4314 25.7628 38.6787 23.0505 42.5407ZM43.0432 44.7797C42.6918 47.6905 41.506 50.3771 39.0446 51.4967C37.8391 52.0559 36.3516 52.7845 35.0461 52.6162C33.7903 52.4478 32.353 52.3355 31.0476 51.4967C29.2387 50.376 27.1603 48.475 25.0498 45.8992C28.3653 41.3656 31.2933 37.2785 32.0472 33.5848C32.399 31.8489 32.1988 29.4436 32.0472 27.9873C31.8469 26.5881 30.7511 25.7484 30.0479 24.6288C28.4895 22.109 25.9636 20.1509 23.0505 20.1509C20.1374 20.1509 17.6105 22.166 16.0531 24.6288C15.3499 25.7484 15.2542 26.5881 15.0534 27.9873C14.8527 29.4436 14.6514 31.9049 15.0534 33.5848C15.8068 37.2785 17.7858 41.365 21.0512 45.8992C18.9914 48.4745 16.8623 50.3771 15.0534 51.4967C13.747 52.3366 13.3103 52.449 12.0545 52.6162C10.6984 52.7845 9.21137 52 8.05598 51.4967C5.59464 50.3771 3.40915 48.81 3.05781 45.8992C2.90724 44.5 3.55454 42.9888 4.05745 41.4212C4.20752 40.8609 3.80649 39.8539 4.05745 39.1823C4.40928 38.2864 5.65419 37.8945 6.05671 36.9433V35.8238C9.52287 27.4823 13.184 19.4793 17.0527 11.1949C17.4552 10.3561 17.6508 8.67641 18.0523 7.83645C18.4543 6.94057 18.4989 6.32558 19.052 5.59747C20.107 4.25532 21.4926 3.35848 23.0505 3.35848C24.6084 3.35848 25.994 4.25532 27.049 5.59747C27.6021 6.32726 28.6463 6.94225 29.0483 7.83645C29.4508 8.67641 29.6469 10.3561 30.0479 11.1949C33.8576 19.5138 37.5191 27.3505 41.0439 35.8238V36.9433C41.4464 37.8403 41.6415 38.2853 42.0435 39.1823C42.2945 39.8528 42.8926 40.8609 43.0432 41.4212C43.4442 42.8752 43.2444 43.3246 43.0432 44.7797Z" fill="#CFCFDE"/>
</svg>
