<svg width="154" height="51" viewBox="0 0 154 51" fill="none" xmlns="http://www.w3.org/2000/svg">
<path fill-rule="evenodd" clip-rule="evenodd" d="M95.2817 39.9522C86.4431 47.1626 74.3918 51 63.3034 51C47.769 51 32.9376 43.8435 22.3313 33.3235C21.5278 32.4961 22.3129 31.5686 23.3307 32.2187C34.7404 39.5473 48.7332 44.3713 63.3034 44.3713C73.1062 44.3713 84.3189 42.4116 94.2823 37.7426C95.7822 37.0925 96.728 38.7702 95.2817 39.9522Z" fill="#CFCFDE"/>
<path fill-rule="evenodd" clip-rule="evenodd" d="M98.6722 35.9981C97.5433 34.2536 91.4741 35.5459 88.6251 35.9981C87.765 36.1274 87.8187 34.3761 88.6251 33.73C93.7319 29.401 101.723 31.1745 102.691 32.5959C103.659 34.0174 102.452 45.9597 97.6675 50.741C96.9149 51.4517 96.3403 50.5761 96.6628 49.6069C97.7379 46.3763 99.8011 37.8073 98.6722 35.9981Z" fill="#CFCFDE"/>
<path fill-rule="evenodd" clip-rule="evenodd" d="M88.989 5.54922V2.21969C88.989 1.63 89.5027 1.10984 89.9888 1.10984H105.987C106.473 1.10984 105.987 1.68897 105.987 2.21969V4.43938C105.987 4.9701 105.743 6.58953 104.987 7.76891L96.988 19.9772C100.013 19.9182 103.286 20.5458 105.987 22.1969C106.581 22.5507 106.933 22.776 106.987 23.3067V27.7461C106.987 28.3358 106.581 29.2098 105.987 28.856C101.18 26.0844 94.2824 25.7306 88.989 28.856C88.4488 29.1508 87.9891 28.3358 87.9891 27.7461V23.3067C87.9891 22.717 88.3948 22.0305 88.989 21.087L97.9878 6.65907H89.9888C89.5027 6.65907 88.989 6.07994 88.989 5.54922ZM31.996 28.856H26.9966C26.5645 28.797 26.0508 29.3277 25.9968 28.856V2.21969C25.9968 1.68897 26.5105 1.10984 26.9966 1.10984H31.996C32.4822 1.10984 31.942 1.74794 31.996 2.21969V5.54922H32.9959C34.1302 2.18799 36.0784 0 38.9952 0C41.966 0 43.6981 2.18799 44.9944 5.54922C46.1287 2.18799 49.1848 0 51.9935 0C53.9921 0 55.6426 1.26562 56.9929 3.32953C58.5053 5.57036 57.9928 8.20896 57.9928 11.0984V28.856C57.9928 29.3867 57.4791 29.9658 56.9929 29.9658H52.9934C52.5073 29.9068 51.9935 29.3277 51.9935 28.856V14.428C51.9935 13.3076 52.2096 9.9402 51.9935 8.87875C51.6154 7.10968 50.3983 6.65907 48.9939 6.65907C47.8596 6.65907 46.4804 7.52247 45.9943 8.87875C45.5082 10.235 45.9943 12.8948 45.9943 14.428V28.856C45.9943 29.3867 45.4805 29.9658 44.9944 29.9658H39.995C39.5089 29.9068 38.9952 29.3277 38.9952 28.856V14.428C38.9952 11.4795 39.3445 6.65907 35.9955 6.65907C32.5926 6.65907 32.9959 11.3026 32.9959 14.428V28.856C32.9419 29.3277 32.5362 28.856 31.996 28.856ZM119.985 0C127.061 0 130.984 7.10525 130.984 15.5378C130.984 23.6755 126.683 29.9658 119.985 29.9658C113.071 29.9658 108.986 23.7935 108.986 15.5378C108.932 7.22319 113.071 0 119.985 0ZM119.985 5.54922C116.474 5.54922 115.986 11.1847 115.986 14.428C115.986 17.6713 116.258 24.4166 119.985 24.4166C123.658 24.4166 123.985 18.958 123.985 15.5378C123.985 13.297 123.579 11.0016 122.985 8.87875C122.445 6.99175 121.498 5.54922 119.985 5.54922ZM139.983 28.856H134.983C134.497 28.797 133.983 29.3277 133.983 28.856V1.10984C134.037 0.638092 134.497 1.10984 134.983 1.10984H139.983C140.415 1.10984 140.874 0.697061 140.982 1.10984V5.54922C142.333 1.89314 143.687 0 146.982 0C149.088 0 151.631 1.02974 152.981 3.32953C154.223 5.45242 153.981 9.61365 153.981 12.2083V28.856C153.927 29.3277 153.467 28.856 152.981 28.856H147.982C147.549 28.797 147.036 29.2687 146.982 28.856V14.428C146.982 11.4795 147.277 6.65907 143.982 6.65907C142.848 6.65907 142.523 7.58144 141.982 8.87875C141.334 10.5299 140.982 12.5999 140.982 14.428V28.856C140.928 29.3867 140.469 28.856 139.983 28.856ZM76.9904 16.6477C76.9904 18.6526 76.9088 20.3688 75.9906 22.1969C75.2344 23.6711 73.3414 24.4166 71.9911 24.4166C70.1546 24.4166 68.9914 23.3279 68.9914 21.087C68.9914 16.6644 73.5335 15.5378 76.9904 15.5378V16.6477ZM80.9899 28.856C80.6659 29.1508 80.3682 30.2017 79.9901 29.9658C78.4236 28.5505 77.8547 26.8827 76.9904 25.5264C74.3977 28.4159 73.3402 29.9658 69.9913 29.9658C65.9942 29.9658 61.9923 26.4532 61.9923 21.087C61.9923 16.8413 65.0207 14.7334 67.9916 13.3181C70.5843 12.0798 74.2357 11.4523 76.9904 11.0984C76.9904 9.86009 76.6928 7.72051 75.9906 6.65907C75.3964 5.71556 73.9632 5.54922 72.9909 5.54922C71.1544 5.54922 69.3695 6.75587 68.9914 8.87875C68.8834 9.35051 69.4236 9.9886 68.9914 9.9886L63.9921 8.87875C63.6139 8.76082 62.8841 8.41757 62.9922 7.76891C64.0725 1.63613 69.4536 0 73.9908 0C76.3135 0 79.1534 0.273711 80.9899 2.21969C83.3126 4.57845 82.9897 7.67824 82.9897 11.0984V19.9772C82.9897 22.3949 84.1252 23.0603 84.9894 24.4166C85.3135 24.8883 85.3676 25.2316 84.9894 25.5264C83.9632 26.411 81.9622 27.9714 80.9899 28.856ZM13.9983 16.6477C13.9983 18.6526 13.9166 20.3688 12.9984 22.1969C12.2422 23.6711 11.3491 24.4166 9.99876 24.4166C8.16225 24.4166 6.99913 23.3279 6.99913 21.087C6.99913 16.6644 10.5413 15.5378 13.9983 15.5378V16.6477ZM18.9976 28.856C18.6736 29.1508 18.3759 30.2017 17.9978 29.9658C16.4313 28.5505 15.8624 26.8827 14.9981 25.5264C12.4054 28.4159 10.3481 29.9658 6.99913 29.9658C3.00203 29.9658 0 26.4532 0 21.087C0 16.8413 2.02856 14.7334 4.99938 13.3181C7.5921 12.0798 11.2435 11.4523 13.9983 11.0984C13.9983 9.86009 13.7006 7.72051 12.9984 6.65907C12.4042 5.71556 11.9709 5.54922 10.9986 5.54922C9.16213 5.54922 7.37724 6.75587 6.99913 8.87875C6.8911 9.35051 6.43137 9.9886 5.99926 9.9886L1.99975 8.87875C1.62165 8.76082 0.891846 8.41757 0.999876 7.76891C2.08017 1.63613 7.46125 0 11.9985 0C14.3212 0 17.1611 0.273711 18.9976 2.21969C21.3203 4.57845 20.9974 7.67824 20.9974 11.0984V19.9772C20.9974 22.3949 22.1329 23.0603 22.9971 24.4166C23.3212 24.8883 23.3752 25.2316 22.9971 25.5264C21.9709 26.411 19.9699 27.9714 18.9976 28.856Z" fill="#CFCFDE"/>
</svg>
