<svg width="193" height="39" viewBox="0 0 193 39" fill="none" xmlns="http://www.w3.org/2000/svg">
<path d="M99 19C97.4064 19 96.1648 19.4564 95 19.9999V31.9999C96.1157 32.1084 96.9415 31.9999 98 31.9999C101.825 31.9999 103 30.497 103 27.9999V21.9999C103 20.1558 101.657 19 99 19ZM74 18C71.3461 18 71 20.1577 71 21.9999V22.9999H77V21.9999C77 20.1577 76.6504 18 74 18ZM25 30.9999C25 32.4573 25.5136 32.9999 27 32.9999C28.5945 32.9999 29.8361 32.5453 31 31.9999V28.9999H27C25.3492 28.9999 25 29.5343 25 30.9999ZM124 19C121.342 19 120 20.1558 120 21.9999V28.9999C120 30.8486 121.342 31.9999 124 31.9999C126.651 31.9999 128 30.8486 128 28.9999V21.9999C127.999 20.1558 126.65 19 124 19ZM12 38.9999H4V19H0V13H4V8.99998C4 3.57071 5.7363 0 12 0H18V6.99998H14C11.5613 6.99998 12 7.2644 12 8.99998V13H18L17 19H12V38.9999ZM38 38.9999H32V36.9999C29.0263 38.6817 25.7508 38.9999 24 38.9999C19.2236 38.9999 17 35.5053 17 30.9999C17 25.6847 19.693 23.9999 25 23.9999H31V22.9999C31 20.2867 30.0868 19 26 19H20V13H27C35.9668 13 38 15.6746 38 22.9999V38.9999ZM61 19.9999C56.9472 19.2904 54.95 19 53 19C49.4974 19 49 19.9629 49 22.9999V28.9999C49 32.037 49.4974 31.9999 53 31.9999C54.95 31.9999 56.9472 31.7122 61 30.9999V37.9999C57.4501 38.8125 54.9545 38.9999 53 38.9999C44.6103 38.9999 41 34.5072 41 27.9999V22.9999C41 16.4872 44.6103 12 53 12C54.9545 12 57.4501 12.1837 61 13V19.9999ZM85 27.9999H71V28.9999C71 32.037 71.4983 31.9999 75 31.9999C78.1479 31.9999 79.9543 31.7122 84 30.9999V37.9999C80.0981 38.8125 78.8277 38.9999 75 38.9999C66.6094 38.9999 63 34.5072 63 27.9999V22.9999C63 17.3062 65.4022 12 74 12C82.5978 12 85 17.2524 85 22.9999V27.9999ZM110 27.9999C110 34.2892 108.666 38.9999 98 38.9999C94.1482 38.9999 92.2511 38.6675 88 37.9999V1.99999L95 0.999997V13C96.6883 12.3597 99.0116 12 101 12C108.813 12 110 16.2533 110 21.9999V27.9999ZM135 27.9999C135 33.4255 133.179 38.9999 124 38.9999C114.816 38.9999 113 33.4255 113 27.9999V22.9999C113 17.5716 114.816 12 124 12C133.179 12 135 17.5716 135 22.9999V27.9999ZM160 27.9999C160 33.4255 158.178 38.9999 149 38.9999C139.816 38.9999 138 33.4255 138 27.9999V22.9999C138 17.5716 139.816 12 149 12C158.178 12 160 17.5716 160 22.9999V27.9999ZM186 38.9999H178L171 25.9999V38.9999H163V1.99999L171 0.999997V23.9999L178 13H186L178 24.9999L186 38.9999ZM149 19C146.346 19 146 20.1558 146 21.9999V28.9999C146 30.8486 146.346 31.9999 149 31.9999C151.65 31.9999 153 30.8486 153 28.9999V21.9999C153 20.1558 151.65 19 149 19ZM191 33.9999C192.316 33.9999 193 35.6319 193 36.9999C193 38.3889 192.325 38.9999 191 38.9999C189.682 38.9999 188 38.3889 188 36.9999C188 35.6319 189.682 33.9999 191 33.9999ZM191 33.9999C189.94 33.9999 189 35.8508 189 36.9999C189 38.17 189.931 38.9999 191 38.9999C192.07 39.0108 193 38.1591 193 36.9999C193 35.8407 192.07 33.9999 191 33.9999ZM190 37.9999V34.9999C190.225 34.968 190.678 34.9999 191 34.9999C190.837 34.8804 191.407 34.9999 191 34.9999C191.158 35.1212 192 35.7382 192 35.9999C192 36.3629 191.289 36.9114 191 36.9999C191.235 37.0446 191.946 36.5959 192 36.9999C192.063 37.4276 191.958 37.9105 192 37.9999H191C190.937 37.9105 191.054 37.362 191 36.9999C190.937 36.6506 190.343 36.9999 190 36.9999V37.9999ZM190 35.9999C190.352 35.9999 191 36.3401 191 35.9999C191 35.7591 190.481 34.9999 190 34.9999C189.86 34.9999 190.073 35.9899 190 35.9999Z" fill="#CFCFDE"/>
</svg>
