<svg width="168" height="55" viewBox="0 0 168 55" fill="none" xmlns="http://www.w3.org/2000/svg">
<g clip-path="url(#clip0_8_1794)">
<path d="M20.4375 0H22.457C27.7532 0.113288 34.8709 2.27875 38.6128 5.98894C37.2312 7.37672 35.9267 8.59379 34.5738 9.98156C32.4726 8.11231 28.2494 6.49874 25.4862 5.98894C21.3989 5.13928 16.7946 5.69117 13.3693 7.98525C9.62743 10.3926 6.84805 14.6034 6.30116 18.965C5.6967 23.2699 7.49052 28.599 10.3401 31.941C13.0746 35.198 17.1297 36.7902 21.4472 36.9318C25.477 37.1584 30.6282 35.7147 33.5641 32.9392C35.8668 30.9849 37.2577 27.8428 37.6031 24.9539C32.8249 24.9539 26.2254 24.9822 21.4472 24.9539V19.9631H43.6615C44.6977 26.2223 43.4485 32.4569 38.6128 36.9318C35.389 40.1039 29.0243 42.5525 24.4765 42.9207C20.0725 43.3456 15.2645 42.0221 11.3499 39.9263C6.65809 37.4622 3.09463 33.8462 1.25247 28.9465C-0.474561 24.4433 -0.359426 19.5039 1.25247 14.9723C2.72044 10.8373 5.70361 6.54161 9.33038 3.99263C12.8132 1.47197 16.1199 0.254898 20.4375 0Z" fill="#CFCFDE"/>
<path d="M134 1H140V40.9752C138.009 40.9752 135.991 41.0311 134 40.9752C134.028 27.6969 134 14.3062 134 1Z" fill="#CFCFDE"/>
<path d="M53.7411 15.1645C57.4293 14.4848 61.7233 15.9955 64.7689 18.1434C67.5351 20.0465 69.1948 22.8244 69.7816 26.087C70.536 29.8661 69.2887 34.0188 66.774 37.0095C64.0637 40.3536 60.0771 42.2461 55.7462 41.9742C51.7785 41.7567 48.0679 40.1633 45.7209 37.0095C43.0664 33.5294 42.2629 28.1793 43.7158 24.1011C45.1688 19.7238 49.1029 15.953 53.7411 15.1645ZM54.7436 21.1222C53.2348 21.5029 51.7394 21.9119 50.7335 23.1081C48.0232 26.2619 47.7438 31.0943 50.7335 34.0306C52.4379 35.7163 55.3762 37.4716 57.7512 37.0095C59.9586 36.6288 61.7021 34.9408 62.7639 33.0376C64.608 29.8023 64.5834 24.6437 61.7613 22.1152C59.9452 20.4839 57.1466 20.5241 54.7436 21.1222Z" fill="#CFCFDE"/>
<path d="M83.8218 15.1807C88.0805 14.3922 92.689 16.27 95.876 19.152C101.065 23.638 101.309 31.857 96.8806 37.0228C94.2012 40.2854 90.1178 42.1772 85.8308 41.9869C81.7413 41.8781 78.2112 40.2582 75.7857 37.0228C73.0499 33.4611 72.2254 28.2759 73.7766 24.1161C75.3278 19.8747 79.2246 15.9419 83.8218 15.1807ZM84.8263 21.1376C83.3033 21.5182 81.8236 21.9541 80.8083 23.1232C78.1007 26.2227 77.9033 31.0808 80.8083 34.0443C82.5287 35.8116 85.358 37.5122 87.8399 37.0228C90.0398 36.6149 91.7907 34.9547 92.8625 33.0515C94.6957 29.7889 93.7302 24.6589 90.8534 22.1304C89.0202 20.4991 87.2236 20.5395 84.8263 21.1376Z" fill="#CFCFDE"/>
<path d="M110.007 16.9842C113.214 14.9575 116.545 14.2421 120.003 15.9873C121.091 16.4658 122.138 17.1648 123.002 17.9812C123.03 17.2211 122.974 16.7754 123.002 15.9873C124.87 16.0154 127.104 15.9591 129 15.9873V40.9107C128.972 44.6545 127.678 48.1497 125.001 50.8801C122.073 53.892 118.049 55.4871 114.005 54.8678C109.683 54.2204 105.682 50.9176 104.009 46.8923C105.682 46.076 107.278 45.6585 109.007 44.8985C109.983 47.2067 112.523 48.4358 115.005 48.8862C117.487 49.3366 120.385 48.9753 122.002 46.8923C123.731 44.753 123.086 41.5347 123.002 38.9168C121.719 40.1835 120.788 41.4854 119.004 41.9077C115.127 43.0055 110.991 41.5628 108.007 38.9168C104.996 36.2709 102.842 32.0039 103.009 27.9505C103.093 23.3623 106.131 19.3769 110.007 16.9842ZM115.005 20.972C113.304 21.2535 112.094 21.6429 111.006 22.9658C108.385 26.1185 108.357 31.8327 111.006 34.9291C112.512 36.7588 114.662 37.1763 117.004 36.923C119.207 36.6978 121.915 35.8744 123.002 33.9322C124.843 30.6388 124.484 25.837 122.002 22.9658C120.469 21.1925 117.319 20.5497 115.005 20.972Z" fill="#CFCFDE"/>
<path d="M147.128 17.9107C150.403 14.7959 155.847 14.2691 160.049 15.9099C164.033 17.4395 166.718 20.9365 168 24.9134C162.079 27.4164 156.031 30.4136 150.11 32.9165C150.929 34.5017 152.394 35.3337 154.086 35.9177C156.459 36.7798 159.051 36.5303 161.043 34.9173C161.834 34.3055 162.43 33.6952 163.031 32.9165C164.531 33.9455 166.499 34.8887 168 35.9177C165.872 39.1716 161.908 41.5585 158.061 41.92C153.805 42.4484 148.89 40.311 146.134 36.9181C141.605 31.5784 142.026 22.722 147.128 17.9107ZM150.11 22.9126C149.182 24.2754 149.089 26.2737 149.116 27.9146C153.072 26.2459 157.086 24.6091 161.043 22.9126C160.388 21.3552 158.677 20.1618 157.067 19.9115C154.475 19.4387 151.556 20.7434 150.11 22.9126Z" fill="#CFCFDE"/>
</g>
<defs>
<clipPath id="clip0_8_1794">
<rect width="168" height="55" fill="white"/>
</clipPath>
</defs>
</svg>
