<svg width="130" height="51" viewBox="0 0 130 51" fill="none" xmlns="http://www.w3.org/2000/svg">
<path d="M103 16V0H107V14C106.104 14.456 104.119 15.0626 103 16ZM98 21C98.995 19.7839 99.7811 18.0387 101 17V0H98V21ZM60 34C60 38.2817 61.9403 41.8838 65 45C68.0348 48.0909 71.7711 50 76 50C77.791 50 79.7065 49.6587 81 49V46C79.4826 46.6587 77.5672 47 76 47C69.0846 47 64 41.0432 64 34V31C64 23.9568 69.1095 18 76 18C79.4328 18 82.6119 19.5678 85 22C87.3881 24.4322 89 27.5037 89 31V50H92V30C91.801 25.7943 89.9851 21.9389 87 19C83.9901 16.0611 80.1045 14 76 14C71.796 14 68.0597 15.8838 65 19C61.9652 22.0909 60 26.693 60 31V34ZM109 26C110.468 24.5052 112.134 23 114 23C118.005 23 121 26.9463 121 31V34C121 38.079 117.98 41 114 41C112.06 41 110.468 39.9508 109 38C107.706 36.2772 106.124 34.1028 106 32L104 35C104.522 37.4829 105.184 40.3279 107 42C108.866 43.7228 111.662 44 114 44C119.721 44 124 39.8018 124 34V31C124 28.2385 122.99 25.0015 121 23C119.01 20.9732 116.711 20 114 20C112.284 20 109.234 21.0358 106 24C105.129 24.8867 103.244 26.5306 102 28C99.9104 30.3308 97.5871 34.4784 95 38V43C97.8607 39.2504 99.2886 37.1669 102 34C104.388 31.1118 107.308 27.5201 109 26ZM32 20V16C29.0647 14.4039 26.2289 13 22 13C17.6716 13 13.1095 15.0864 10 18C6.86567 20.9389 6 24.8957 6 29V30C6 38.5127 12.7413 45 21 45C27.6915 45 30.3035 42.7094 31 42V32H20V36H28V41C26.9801 41.4054 24.9552 42 21 42C17.8657 42 14.1891 40.2802 12 38C9.78607 35.7198 9 33.2936 9 30V29C9 22.4382 14.8607 17 22 17C26.9005 17.0253 29.5124 17.9225 32 20ZM56 23C57.2189 23 58.1542 23.5946 59 24C59.398 22.9866 59.403 22.0134 60 21C59.1294 20.3666 57.5423 20 56 20C50.1045 20 46 24.9702 46 31V50H49V31C49 26.7437 51.796 23 56 23ZM0 29V30C0 35.7258 2.14428 41.0224 6 45C9.85572 48.9523 15.4776 51 21 51C25.4527 51 28.6667 50.0268 32 48C34.7363 46.3279 35.9005 44.152 36 44V27H20V30H33V43C31.4328 44.5961 28.2388 48 21 48C16.2736 48 11.2338 46.3443 8 43C4.79104 39.6811 3 34.839 3 30V29C3 24.4143 5.46766 19.3696 9 16C12.607 12.5544 17.0746 11 22 11C26.602 11 29.4378 11.4039 32 13V10C29.3134 8.83458 26.4776 8 22 8C10.0597 8 0 17.6498 0 29ZM87 50V31C87 25.0715 81.8209 20 76 20C73.2886 20 70.9901 20.9732 69 23C67.0099 25.0268 66 28.2638 66 31V34C66 39.7258 70.403 44 76 44C77.5423 44 79.7065 44.0894 81 43V39C79.7313 40.0387 77.8408 41 76 41C72.0199 41 69 38.0536 69 34V31C69 26.921 72.0199 23 76 23C80.005 23 83 26.9463 83 31V50H87ZM56 18C58.1891 18 60.2836 18.0119 62 19C62.796 17.9613 63.3781 17.6334 64 17C62.1841 15.5812 59.1343 14 56 14C51.4975 14 46.9104 15.9851 44 19C41.1144 21.9642 40 26.465 40 31V50H43V31C42.9751 23.3487 48.4876 18 56 18ZM125 19C121.965 15.9091 118.229 14 114 14C110.915 14 107.716 15.8346 106 17C102.468 19.3815 99.2239 22.1341 94 29V34C98.4279 28.1222 102.816 22.5589 106 20C108.09 18.3025 111.313 18 114 18C120.915 18 127 23.9821 127 31V34C127 37.4709 125.438 40.5425 123 43C120.587 45.4322 117.358 47 114 47C108.328 47 103.343 42.3964 102 37L100 40C101.667 45.6751 107.383 50 114 50C118.229 50 121.94 48.0909 125 45C128.035 41.8838 130 38.307 130 34V31C130 26.7183 128.035 22.0909 125 19Z" fill="#CFCFDE"/>
</svg>
