<svg width="231" height="66" viewBox="0 0 231 66" fill="none" xmlns="http://www.w3.org/2000/svg">
<path d="M31.6352 27.0522L29.0955 29.8941L23.2637 23.307L23.2392 50.7111L19.6558 50.7071L19.6803 23.3779L13.8927 29.8541L11.3649 26.9988L21.5238 15.6311L31.6352 27.0522Z" fill="#2F327D"/>
<path d="M52.328 42.808H66.144V48H45.2V43.248L58.928 22.48H45.2V17.288H66.144V22.04L52.328 42.808ZM79.6916 48.324C77.7716 48.324 76.0436 47.904 74.5076 47.064C72.9716 46.2 71.7596 44.988 70.8716 43.428C70.0076 41.868 69.5756 40.068 69.5756 38.028C69.5756 35.988 70.0196 34.188 70.9076 32.628C71.8196 31.068 73.0556 29.868 74.6156 29.028C76.1756 28.164 77.9156 27.732 79.8356 27.732C81.7556 27.732 83.4956 28.164 85.0556 29.028C86.6156 29.868 87.8396 31.068 88.7276 32.628C89.6396 34.188 90.0956 35.988 90.0956 38.028C90.0956 40.068 89.6276 41.868 88.6916 43.428C87.7796 44.988 86.5316 46.2 84.9476 47.064C83.3876 47.904 81.6356 48.324 79.6916 48.324ZM79.6916 43.932C80.6036 43.932 81.4556 43.716 82.2476 43.284C83.0636 42.828 83.7116 42.156 84.1916 41.268C84.6716 40.38 84.9116 39.3 84.9116 38.028C84.9116 36.132 84.4076 34.68 83.3996 33.672C82.4156 32.64 81.2036 32.124 79.7636 32.124C78.3236 32.124 77.1116 32.64 76.1276 33.672C75.1676 34.68 74.6876 36.132 74.6876 38.028C74.6876 39.924 75.1556 41.388 76.0916 42.42C77.0516 43.428 78.2516 43.932 79.6916 43.932ZM104.845 27.768C107.221 27.768 109.141 28.524 110.605 30.036C112.069 31.524 112.801 33.612 112.801 36.3V48H107.761V36.984C107.761 35.4 107.365 34.188 106.573 33.348C105.781 32.484 104.701 32.052 103.333 32.052C101.941 32.052 100.837 32.484 100.021 33.348C99.2286 34.188 98.8326 35.4 98.8326 36.984V48H93.7926V28.056H98.8326V30.54C99.5046 29.676 100.357 29.004 101.389 28.524C102.445 28.02 103.597 27.768 104.845 27.768ZM136.133 37.596C136.133 38.316 136.085 38.964 135.989 39.54H121.409C121.529 40.98 122.033 42.108 122.921 42.924C123.809 43.74 124.901 44.148 126.197 44.148C128.069 44.148 129.401 43.344 130.193 41.736H135.629C135.053 43.656 133.949 45.24 132.317 46.488C130.685 47.712 128.681 48.324 126.305 48.324C124.385 48.324 122.657 47.904 121.121 47.064C119.609 46.2 118.421 44.988 117.557 43.428C116.717 41.868 116.297 40.068 116.297 38.028C116.297 35.964 116.717 34.152 117.557 32.592C118.397 31.032 119.573 29.832 121.085 28.992C122.597 28.152 124.337 27.732 126.305 27.732C128.201 27.732 129.893 28.14 131.381 28.956C132.893 29.772 134.057 30.936 134.873 32.448C135.713 33.936 136.133 35.652 136.133 37.596ZM130.913 36.156C130.889 34.86 130.421 33.828 129.509 33.06C128.597 32.268 127.481 31.872 126.161 31.872C124.913 31.872 123.857 32.256 122.993 33.024C122.153 33.768 121.637 34.812 121.445 36.156H130.913Z" fill="#2F327D"/>
<path d="M161.264 17.288V22.26H153.08V48H146.92V22.26H138.736V17.288H161.264ZM183.747 37.596C183.747 38.316 183.699 38.964 183.603 39.54H169.023C169.143 40.98 169.647 42.108 170.535 42.924C171.423 43.74 172.515 44.148 173.811 44.148C175.683 44.148 177.015 43.344 177.807 41.736H183.243C182.667 43.656 181.563 45.24 179.931 46.488C178.299 47.712 176.295 48.324 173.919 48.324C171.999 48.324 170.271 47.904 168.735 47.064C167.223 46.2 166.035 44.988 165.171 43.428C164.331 41.868 163.911 40.068 163.911 38.028C163.911 35.964 164.331 34.152 165.171 32.592C166.011 31.032 167.187 29.832 168.699 28.992C170.211 28.152 171.951 27.732 173.919 27.732C175.815 27.732 177.507 28.14 178.995 28.956C180.507 29.772 181.671 30.936 182.487 32.448C183.327 33.936 183.747 35.652 183.747 37.596ZM178.527 36.156C178.503 34.86 178.035 33.828 177.123 33.06C176.211 32.268 175.095 31.872 173.775 31.872C172.527 31.872 171.471 32.256 170.607 33.024C169.767 33.768 169.251 34.812 169.059 36.156H178.527ZM186.129 38.028C186.129 35.964 186.549 34.164 187.389 32.628C188.229 31.068 189.393 29.868 190.881 29.028C192.369 28.164 194.073 27.732 195.993 27.732C198.465 27.732 200.505 28.356 202.113 29.604C203.745 30.828 204.837 32.556 205.389 34.788H199.953C199.665 33.924 199.173 33.252 198.477 32.772C197.805 32.268 196.965 32.016 195.957 32.016C194.517 32.016 193.377 32.544 192.537 33.6C191.697 34.632 191.277 36.108 191.277 38.028C191.277 39.924 191.697 41.4 192.537 42.456C193.377 43.488 194.517 44.004 195.957 44.004C197.997 44.004 199.329 43.092 199.953 41.268H205.389C204.837 43.428 203.745 45.144 202.113 46.416C200.481 47.688 198.441 48.324 195.993 48.324C194.073 48.324 192.369 47.904 190.881 47.064C189.393 46.2 188.229 45 187.389 43.464C186.549 41.904 186.129 40.092 186.129 38.028ZM220.314 27.768C221.826 27.768 223.17 28.104 224.346 28.776C225.522 29.424 226.434 30.396 227.082 31.692C227.754 32.964 228.09 34.5 228.09 36.3V48H223.05V36.984C223.05 35.4 222.654 34.188 221.862 33.348C221.07 32.484 219.99 32.052 218.622 32.052C217.23 32.052 216.126 32.484 215.31 33.348C214.518 34.188 214.122 35.4 214.122 36.984V48H209.082V21.36H214.122V30.54C214.77 29.676 215.634 29.004 216.714 28.524C217.794 28.02 218.994 27.768 220.314 27.768Z" fill="#FF8A00"/>
</svg>
