<svg width="151" height="46" viewBox="0 0 151 46" fill="none" xmlns="http://www.w3.org/2000/svg">
<path d="M143 22.439L151 46C148.619 45.6168 146.423 45.3105 144 44.878L139 31.4146L135 43.7561C132.705 43.3237 130.295 42.97 128 42.6341L136 21.3171L129 0H135L140 12.3415L144 0H151L143 22.439ZM123 0H117V41.5122C119.041 41.6564 120.916 42.3474 123 42.6341V0ZM111 41.5122C105.304 41.0812 99.8237 40.5359 94 40.3902V0H101V33.6585C104.657 33.7537 107.471 33.4669 111 33.6585V41.5122ZM87 16.8293V23.561H79V40.3902H72V0H90V6.73171H79V16.8293H87ZM62 6.73171V40.3902C59.8738 40.3902 57.0842 40.2951 55 40.3902V6.73171H49V0H68V6.73171H62ZM42 23.561C39.1948 23.561 35.3806 23.4153 33 23.561V34.7805C36.741 34.4923 41.217 33.8026 45 33.6585V40.3902L27 42.6341V0H45V6.73171H33V16.8293C35.4663 16.8293 39.7473 16.8293 42 16.8293V23.561ZM7 20.1951V44.878C4.70644 45.1663 2.1671 45.6166 0 46V0H6L14 25.8049V0H21V42.6341C18.7472 43.0666 16.4228 43.3742 14 43.7561L7 20.1951Z" fill="#CFCFDE"/>
</svg>
