<svg width="57" height="59" viewBox="0 0 57 59" fill="none" xmlns="http://www.w3.org/2000/svg">
<g filter="url(#filter0_d_13_146)">
<path d="M10.5578 25.4166L16.1278 27.7225H16.1274C15.4994 29.3054 14.9987 30.9355 14.6296 32.5976L14.4182 33.5562L22.4034 41.5327L23.3636 41.3268V41.3264C25.0286 40.9579 26.6614 40.458 28.2469 39.8311L30.5567 45.3917L30.5563 45.3914C30.6022 45.5034 30.7017 45.5846 30.8206 45.608C30.9395 45.6311 31.0621 45.593 31.1468 45.5064L34.6375 42.0215H34.6378C35.7897 40.8716 36.4003 39.2887 36.3182 37.6644L36.1936 35.4258C42.6565 30.661 49.1957 22.306 50.9774 7.72419C51.0799 6.98323 50.8297 6.2369 50.3012 5.70627C49.773 5.17596 49.0268 4.92251 48.2839 5.02081C33.6819 6.81335 25.3083 13.347 20.5358 19.7798L18.2981 19.6648C16.6746 19.5765 15.0894 20.1774 13.9336 21.3186L10.4429 24.8034C10.3445 24.887 10.2982 25.0167 10.322 25.1438C10.3458 25.2705 10.4359 25.3748 10.5581 25.417L10.5578 25.4166ZM32.9521 16.9226C33.7633 16.1154 34.8622 15.663 36.0074 15.6644C37.1529 15.6657 38.2508 16.1208 39.06 16.9296C39.8693 17.7385 40.3241 18.8352 40.3241 19.9784C40.3241 21.1216 39.8692 22.2184 39.06 23.0272C38.2508 23.8361 37.1529 24.2915 36.0074 24.2924C34.8623 24.2938 33.7634 23.8414 32.9521 23.0342C32.1383 22.2247 31.6811 21.1253 31.6811 19.9784C31.6811 18.8316 32.1383 17.7321 32.9521 16.9226ZM9.51518 42.1701C8.59079 41.8461 7.5984 41.7668 6.63405 41.9397C6.45989 41.9775 6.27869 41.9233 6.15409 41.7959C5.99834 41.6411 5.95614 41.4057 6.04824 41.2064C7.07116 39.011 9.78406 34.5962 14.6963 38.1626C14.7482 38.2088 14.778 38.2753 14.778 38.3445C14.778 38.4141 14.7482 38.4806 14.6963 38.5267C13.3625 39.5753 12.6086 41.195 12.6652 42.889C12.6726 43.0923 12.836 43.2554 13.0397 43.2628C14.729 43.3307 16.3504 42.5944 17.4092 41.2783C17.4557 41.2214 17.5254 41.1883 17.5988 41.1883C17.6724 41.1883 17.7421 41.2214 17.7887 41.2783C18.4706 42.0884 20.3479 44.7343 18.269 47.2893H18.2686C17.361 48.3787 16.0604 49.0672 14.6483 49.2069C12.6316 49.4226 8.90551 50.0792 7.38357 51.8147C7.25898 51.9618 7.06337 52.0287 6.87447 51.9885C6.68591 51.9484 6.53452 51.808 6.48059 51.6227C5.94302 49.7917 5.10733 45.698 9.51546 42.17L9.51518 42.1701Z" fill="white"/>
</g>
<defs>
<filter id="filter0_d_13_146" x="0" y="0" width="57" height="59" filterUnits="userSpaceOnUse" color-interpolation-filters="sRGB">
<feFlood flood-opacity="0" result="BackgroundImageFix"/>
<feColorMatrix in="SourceAlpha" type="matrix" values="0 0 0 0 0 0 0 0 0 0 0 0 0 0 0 0 0 0 127 0" result="hardAlpha"/>
<feOffset dy="1"/>
<feGaussianBlur stdDeviation="3"/>
<feComposite in2="hardAlpha" operator="out"/>
<feColorMatrix type="matrix" values="0 0 0 0 0 0 0 0 0 0 0 0 0 0 0 0 0 0 0.13 0"/>
<feBlend mode="normal" in2="BackgroundImageFix" result="effect1_dropShadow_13_146"/>
<feBlend mode="normal" in="SourceGraphic" in2="effect1_dropShadow_13_146" result="shape"/>
</filter>
</defs>
</svg>
