<svg width="52" height="57" viewBox="0 0 52 57" fill="none" xmlns="http://www.w3.org/2000/svg">
<g filter="url(#filter0_d_14_151)">
<path d="M33.0487 10.2677C33.0487 10.2677 32.5417 10.4114 31.7052 10.6649C31.5615 10.1917 31.3418 9.65084 31.0545 9.06779C30.1081 7.25102 28.6969 6.27081 27.0238 6.27081C26.914 6.27081 26.8041 6.27081 26.6605 6.30461C26.6267 6.22856 26.5506 6.19476 26.5168 6.12716C25.7901 5.3244 24.8437 4.96105 23.7198 5.0033C21.5397 5.07935 19.3596 6.63416 17.6189 9.43114C16.3852 11.3916 15.4387 13.859 15.1852 15.7856C12.6756 16.5461 10.9348 17.0954 10.901 17.1292C9.63354 17.5263 9.59129 17.5686 9.44763 18.76C9.33778 19.6642 6 45.2426 6 45.2426L33.4628 50V10.2339C33.2346 10.2339 33.1248 10.2677 33.0487 10.2677ZM26.6943 12.2281C25.2408 12.6675 23.6438 13.1745 22.0805 13.6477C22.5199 11.9408 23.3903 10.2339 24.4043 9.11004C24.8014 8.71288 25.3507 8.23968 25.9676 7.94393C26.5844 9.25369 26.7281 11.0367 26.6943 12.2281ZM23.7198 6.49051C24.2268 6.49051 24.6662 6.60036 25.0296 6.82007C24.4465 7.10737 23.8635 7.58057 23.3227 8.12983C21.9453 9.61704 20.8891 11.9408 20.4496 14.1632C19.1399 14.5603 17.8301 14.9659 16.6387 15.3293C17.433 11.831 20.3736 6.56656 23.7198 6.49051ZM19.5032 26.475C19.6469 28.7987 25.7901 29.3057 26.1535 34.7899C26.407 39.1163 23.8635 42.0569 20.1961 42.2766C15.7683 42.5639 13.3347 39.9529 13.3347 39.9529L14.2811 35.956C14.2811 35.956 16.7147 37.8065 18.6751 37.6629C19.9426 37.5868 20.4158 36.539 20.382 35.8123C20.2046 32.7618 15.1852 32.9393 14.8641 27.9284C14.5768 23.7118 17.3316 19.4614 23.441 19.0642C25.7986 18.9206 26.9985 19.5036 26.9985 19.5036L25.6211 24.7342C25.6211 24.7342 24.0578 24.0075 22.2073 24.1512C19.5032 24.3286 19.4694 26.0356 19.5032 26.475ZM28.1477 11.7972C28.1477 10.7071 28.004 9.14384 27.497 7.83408C29.1701 8.16363 29.9644 10.0142 30.3278 11.1381C29.6771 11.324 28.9504 11.5437 28.1477 11.7972ZM34.2909 49.9408L45.6985 47.1101C45.6985 47.1101 40.7975 13.9435 40.7552 13.7238C40.7214 13.5041 40.5355 13.3604 40.358 13.3604C40.1806 13.3604 36.978 13.2844 36.978 13.2844C36.978 13.2844 35.0176 11.3916 34.2909 10.6649V49.9408Z" fill="white"/>
</g>
<defs>
<filter id="filter0_d_14_151" x="0" y="0" width="51.6985" height="57" filterUnits="userSpaceOnUse" color-interpolation-filters="sRGB">
<feFlood flood-opacity="0" result="BackgroundImageFix"/>
<feColorMatrix in="SourceAlpha" type="matrix" values="0 0 0 0 0 0 0 0 0 0 0 0 0 0 0 0 0 0 127 0" result="hardAlpha"/>
<feOffset dy="1"/>
<feGaussianBlur stdDeviation="3"/>
<feComposite in2="hardAlpha" operator="out"/>
<feColorMatrix type="matrix" values="0 0 0 0 0 0 0 0 0 0 0 0 0 0 0 0 0 0 0.13 0"/>
<feBlend mode="normal" in2="BackgroundImageFix" result="effect1_dropShadow_14_151"/>
<feBlend mode="normal" in="SourceGraphic" in2="effect1_dropShadow_14_151" result="shape"/>
</filter>
</defs>
</svg>
